<svg width="1279.32" height="90.242" viewBox="0 0 1279.32 90.242" xmlns="http://www.w3.org/2000/svg"><g id="svgGroup" stroke-linecap="round" fill-rule="evenodd" font-size="9pt" stroke="#000000" stroke-width="0.50mm" fill="#5EBEC4" style="stroke:#000000;stroke-width:0.50mm;fill:#5EBEC4"><path d="M 848.16 83.04 L 853.08 74.04 Q 856.44 76.56 860.88 78.48 Q 864.804 80.177 870.228 80.374 A 39.976 39.976 0 0 0 871.68 80.4 Q 878.537 80.4 882.92 77.252 A 14.539 14.539 0 0 0 884.22 76.2 A 13.771 13.771 0 0 0 888.048 70.578 A 14.315 14.315 0 0 0 888.84 65.76 Q 888.84 61.32 886.44 57.66 A 14.63 14.63 0 0 0 882.924 53.979 Q 881.344 52.796 879.33 51.846 A 25.424 25.424 0 0 0 879.06 51.72 Q 875.212 49.958 869.608 49.558 A 48.427 48.427 0 0 0 866.16 49.44 L 859.44 49.44 L 859.44 40.68 L 865.68 40.68 Q 872.76 40.68 877.38 38.52 A 19.781 19.781 0 0 0 880.862 36.463 A 14.187 14.187 0 0 0 884.28 32.88 A 13.99 13.99 0 0 0 886.154 28.736 A 12.533 12.533 0 0 0 886.56 25.56 A 12.086 12.086 0 0 0 885.685 20.892 A 11.301 11.301 0 0 0 882.3 16.44 Q 878.04 12.96 871.8 12.96 Q 866.16 12.96 861.78 14.82 A 37.392 37.392 0 0 0 858.489 16.401 Q 856.279 17.606 854.64 18.96 L 850.2 10.44 Q 852.956 8.603 856.908 6.8 A 79.876 79.876 0 0 1 859.44 5.7 Q 864.997 3.394 872.419 3.361 A 48.588 48.588 0 0 1 872.64 3.36 A 36.368 36.368 0 0 1 878.679 3.835 Q 882.803 4.53 886.08 6.24 A 23.251 23.251 0 0 1 891.217 9.825 A 19.677 19.677 0 0 1 894.54 13.86 Q 897.48 18.6 897.48 24.12 A 23.437 23.437 0 0 1 896.85 29.688 A 17.504 17.504 0 0 1 893.94 36 A 23.463 23.463 0 0 1 888.7 41.108 A 31.746 31.746 0 0 1 883.92 43.92 A 29.775 29.775 0 0 1 890.47 47.343 A 23.756 23.756 0 0 1 895.74 52.38 A 20.76 20.76 0 0 1 899.996 64.937 A 25.686 25.686 0 0 1 900 65.4 Q 900 71.64 896.94 77.34 A 22.562 22.562 0 0 1 890.181 84.965 A 28.436 28.436 0 0 1 887.58 86.64 A 25.371 25.371 0 0 1 880.922 89.224 Q 877.839 89.97 874.235 90.168 A 48.729 48.729 0 0 1 871.56 90.24 A 48.855 48.855 0 0 1 865.125 89.838 Q 861.756 89.39 858.872 88.442 A 28.77 28.77 0 0 1 858 88.14 Q 852.24 86.04 848.16 83.04 Z M 568.2 88.8 L 519.48 88.8 Q 519.12 86.64 519.12 84.36 A 38.631 38.631 0 0 1 519.882 76.53 A 30.975 30.975 0 0 1 521.82 70.38 Q 524.52 64.2 528.84 59.1 Q 533.16 54 538.02 49.62 Q 542.88 45.24 547.14 41.22 A 55.462 55.462 0 0 0 551.243 36.932 A 42.722 42.722 0 0 0 554.16 33.12 A 16.471 16.471 0 0 0 556.272 28.817 A 14.021 14.021 0 0 0 556.92 24.6 A 11.134 11.134 0 0 0 555.931 19.865 A 10.967 10.967 0 0 0 553.2 16.26 A 12.868 12.868 0 0 0 546.819 13.236 A 18.013 18.013 0 0 0 543.6 12.96 A 22.24 22.24 0 0 0 537.652 13.733 A 19.537 19.537 0 0 0 534.42 14.94 A 30.437 30.437 0 0 0 527.474 19.562 A 34.589 34.589 0 0 0 526.68 20.28 L 520.68 12.96 Q 525.48 8.64 531.3 6 A 28.959 28.959 0 0 1 538.867 3.796 A 38.756 38.756 0 0 1 544.8 3.36 A 31.356 31.356 0 0 1 551.042 3.953 A 23.734 23.734 0 0 1 557.16 6.06 A 21.341 21.341 0 0 1 563.024 10.394 A 19.638 19.638 0 0 1 565.38 13.44 Q 568.32 18.12 568.32 23.88 Q 568.32 29.64 565.8 34.56 A 41.734 41.734 0 0 1 559.809 43.258 A 46.432 46.432 0 0 1 559.32 43.8 Q 555.36 48.12 550.8 52.14 Q 546.24 56.16 542.04 60.36 A 55.118 55.118 0 0 0 536.551 66.723 A 48.347 48.347 0 0 0 534.9 69.12 A 23.926 23.926 0 0 0 531.24 78.96 L 568.2 78.96 L 568.2 88.8 Z M 140.52 83.76 L 145.08 74.76 A 22.268 22.268 0 0 0 148.852 77.311 Q 150.704 78.316 152.905 79.127 A 35.786 35.786 0 0 0 152.94 79.14 Q 157.68 80.88 163.08 80.88 Q 169.8 80.88 173.22 78.66 A 8.939 8.939 0 0 0 175.06 77.109 A 6.063 6.063 0 0 0 176.64 72.96 A 8.547 8.547 0 0 0 176.263 70.383 A 7.454 7.454 0 0 0 175.38 68.52 Q 174.173 66.681 171.04 64.897 A 26.769 26.769 0 0 0 170.76 64.74 A 34.155 34.155 0 0 0 168.367 63.548 Q 165.413 62.205 161.04 60.72 A 55.94 55.94 0 0 1 155.763 58.629 Q 150.843 56.362 147.9 53.58 A 13.589 13.589 0 0 1 143.948 46.384 A 20.153 20.153 0 0 1 143.52 42.12 A 14.544 14.544 0 0 1 148.258 31.302 A 20.955 20.955 0 0 1 149.82 29.94 Q 155.105 25.762 163.81 25.089 A 45.033 45.033 0 0 1 167.28 24.96 A 48.953 48.953 0 0 1 172.615 25.237 Q 175.384 25.541 177.804 26.179 A 30.267 30.267 0 0 1 177.96 26.22 A 46.524 46.524 0 0 1 182.921 27.846 A 37.333 37.333 0 0 1 186.36 29.4 L 183.36 38.28 A 29.434 29.434 0 0 0 178.958 36.161 A 36.23 36.23 0 0 0 175.98 35.16 A 30.029 30.029 0 0 0 170.6 34.143 A 38.204 38.204 0 0 0 166.8 33.96 A 24.758 24.758 0 0 0 163.276 34.194 Q 161.482 34.453 160.029 34.997 A 10.211 10.211 0 0 0 157.32 36.48 A 11.186 11.186 0 0 0 155.691 38.008 Q 154.848 38.99 154.446 40.038 A 5.435 5.435 0 0 0 154.08 42 A 5.905 5.905 0 0 0 155.874 46.262 A 8.499 8.499 0 0 0 156.6 46.92 Q 159.12 48.96 166.44 51.36 A 81.304 81.304 0 0 1 172.514 53.638 Q 178.29 56.092 181.6 58.835 A 17.936 17.936 0 0 1 183 60.12 Q 187.68 64.92 187.68 72.12 A 16.648 16.648 0 0 1 186.405 78.739 Q 184.846 82.38 181.379 85.026 A 19.942 19.942 0 0 1 180.9 85.38 Q 174.12 90.24 162.72 90.24 A 47.988 47.988 0 0 1 155.686 89.747 A 37.138 37.138 0 0 1 149.94 88.44 A 37.06 37.06 0 0 1 145.331 86.658 Q 142.955 85.541 141.057 84.163 A 21.874 21.874 0 0 1 140.52 83.76 Z M 1173 32.64 L 1173 0 L 1183.8 0 L 1183.8 73.68 A 14.58 14.58 0 0 0 1183.922 75.643 Q 1184.32 78.563 1186.02 79.62 Q 1188.24 81 1190.88 81 L 1188.6 89.4 A 21.424 21.424 0 0 1 1183.491 88.839 Q 1176.688 87.166 1174.743 80.503 A 16.096 16.096 0 0 1 1174.68 80.28 A 23.383 23.383 0 0 1 1171.284 84.062 Q 1169.578 85.607 1167.438 87.028 A 38.683 38.683 0 0 1 1167.3 87.12 Q 1162.56 90.24 1155.36 90.24 Q 1147.68 90.24 1141.32 86.28 A 27.23 27.23 0 0 1 1132.275 76.93 A 33.147 33.147 0 0 1 1131.24 75.06 A 33.039 33.039 0 0 1 1128.134 65.529 A 44.665 44.665 0 0 1 1127.52 57.96 A 40.728 40.728 0 0 1 1128.587 48.463 A 33.555 33.555 0 0 1 1131.3 41.04 A 32.749 32.749 0 0 1 1136.843 33.131 A 29.023 29.023 0 0 1 1141.38 29.28 Q 1147.68 24.96 1155.24 24.96 A 25.97 25.97 0 0 1 1160.367 25.442 A 19.13 19.13 0 0 1 1165.98 27.48 A 41.212 41.212 0 0 1 1169.077 29.387 Q 1171.425 30.99 1173 32.64 Z M 243.36 32.64 L 243.36 0 L 254.16 0 L 254.16 73.68 A 14.58 14.58 0 0 0 254.282 75.643 Q 254.68 78.563 256.38 79.62 Q 258.6 81 261.24 81 L 258.96 89.4 A 21.424 21.424 0 0 1 253.851 88.839 Q 247.048 87.166 245.103 80.503 A 16.096 16.096 0 0 1 245.04 80.28 A 23.383 23.383 0 0 1 241.644 84.062 Q 239.938 85.607 237.798 87.028 A 38.683 38.683 0 0 1 237.66 87.12 Q 232.92 90.24 225.72 90.24 Q 218.04 90.24 211.68 86.28 A 27.23 27.23 0 0 1 202.635 76.93 A 33.147 33.147 0 0 1 201.6 75.06 A 33.039 33.039 0 0 1 198.494 65.529 A 44.665 44.665 0 0 1 197.88 57.96 A 40.728 40.728 0 0 1 198.947 48.463 A 33.555 33.555 0 0 1 201.66 41.04 A 32.749 32.749 0 0 1 207.203 33.131 A 29.023 29.023 0 0 1 211.74 29.28 Q 218.04 24.96 225.6 24.96 A 25.97 25.97 0 0 1 230.727 25.442 A 19.13 19.13 0 0 1 236.34 27.48 A 41.212 41.212 0 0 1 239.437 29.387 Q 241.785 30.99 243.36 32.64 Z M 999.36 32.64 L 999.36 0 L 1010.16 0 L 1010.16 73.68 A 14.58 14.58 0 0 0 1010.282 75.643 Q 1010.68 78.563 1012.38 79.62 Q 1014.6 81 1017.24 81 L 1014.96 89.4 A 21.424 21.424 0 0 1 1009.851 88.839 Q 1003.048 87.166 1001.103 80.503 A 16.096 16.096 0 0 1 1001.04 80.28 A 23.383 23.383 0 0 1 997.644 84.062 Q 995.938 85.607 993.798 87.028 A 38.683 38.683 0 0 1 993.66 87.12 Q 988.92 90.24 981.72 90.24 Q 974.04 90.24 967.68 86.28 A 27.23 27.23 0 0 1 958.635 76.93 A 33.147 33.147 0 0 1 957.6 75.06 A 33.039 33.039 0 0 1 954.494 65.529 A 44.665 44.665 0 0 1 953.88 57.96 A 40.728 40.728 0 0 1 954.947 48.463 A 33.555 33.555 0 0 1 957.66 41.04 A 32.749 32.749 0 0 1 963.203 33.131 A 29.023 29.023 0 0 1 967.74 29.28 Q 974.04 24.96 981.6 24.96 A 25.97 25.97 0 0 1 986.727 25.442 A 19.13 19.13 0 0 1 992.34 27.48 A 41.212 41.212 0 0 1 995.437 29.387 Q 997.785 30.99 999.36 32.64 Z M 131.16 62.04 L 87.48 62.04 Q 88.56 70.8 93.6 75.72 A 16.973 16.973 0 0 0 102.75 80.293 A 24.025 24.025 0 0 0 106.92 80.64 Q 112.32 80.64 116.64 79.5 Q 120.96 78.36 124.92 76.56 L 127.44 85.8 A 48.924 48.924 0 0 1 122.238 87.751 A 62.236 62.236 0 0 1 117.72 88.98 A 46.697 46.697 0 0 1 111.61 89.963 A 62.43 62.43 0 0 1 105.6 90.24 A 33.981 33.981 0 0 1 96.305 89.033 A 25.33 25.33 0 0 1 84.3 81.66 A 28.226 28.226 0 0 1 78.054 70.212 Q 76.44 64.614 76.44 57.6 A 42.43 42.43 0 0 1 77.439 48.214 A 34.608 34.608 0 0 1 79.98 40.86 Q 83.52 33.48 89.88 29.22 A 25.258 25.258 0 0 1 102.191 25.054 A 31.446 31.446 0 0 1 104.64 24.96 A 34.264 34.264 0 0 1 111.204 25.555 Q 115.217 26.338 118.421 28.153 A 20.656 20.656 0 0 1 119.58 28.86 Q 125.52 32.76 128.52 39.36 A 33.822 33.822 0 0 1 131.431 51.196 A 40.121 40.121 0 0 1 131.52 53.88 A 90.244 90.244 0 0 1 131.171 61.916 A 83.149 83.149 0 0 1 131.16 62.04 Z M 324.96 62.04 L 281.28 62.04 Q 282.36 70.8 287.4 75.72 A 16.973 16.973 0 0 0 296.55 80.293 A 24.025 24.025 0 0 0 300.72 80.64 Q 306.12 80.64 310.44 79.5 Q 314.76 78.36 318.72 76.56 L 321.24 85.8 A 48.924 48.924 0 0 1 316.038 87.751 A 62.236 62.236 0 0 1 311.52 88.98 A 46.697 46.697 0 0 1 305.41 89.963 A 62.43 62.43 0 0 1 299.4 90.24 A 33.981 33.981 0 0 1 290.105 89.033 A 25.33 25.33 0 0 1 278.1 81.66 A 28.226 28.226 0 0 1 271.854 70.212 Q 270.24 64.614 270.24 57.6 A 42.43 42.43 0 0 1 271.239 48.214 A 34.608 34.608 0 0 1 273.78 40.86 Q 277.32 33.48 283.68 29.22 A 25.258 25.258 0 0 1 295.991 25.054 A 31.446 31.446 0 0 1 298.44 24.96 A 34.264 34.264 0 0 1 305.004 25.555 Q 309.017 26.338 312.221 28.153 A 20.656 20.656 0 0 1 313.38 28.86 Q 319.32 32.76 322.32 39.36 A 33.822 33.822 0 0 1 325.231 51.196 A 40.121 40.121 0 0 1 325.32 53.88 A 90.244 90.244 0 0 1 324.971 61.916 A 83.149 83.149 0 0 1 324.96 62.04 Z M 426.24 62.04 L 382.56 62.04 Q 383.64 70.8 388.68 75.72 A 16.973 16.973 0 0 0 397.83 80.293 A 24.025 24.025 0 0 0 402 80.64 Q 407.4 80.64 411.72 79.5 Q 416.04 78.36 420 76.56 L 422.52 85.8 A 48.924 48.924 0 0 1 417.318 87.751 A 62.236 62.236 0 0 1 412.8 88.98 A 46.697 46.697 0 0 1 406.69 89.963 A 62.43 62.43 0 0 1 400.68 90.24 A 33.981 33.981 0 0 1 391.385 89.033 A 25.33 25.33 0 0 1 379.38 81.66 A 28.226 28.226 0 0 1 373.134 70.212 Q 371.52 64.614 371.52 57.6 A 42.43 42.43 0 0 1 372.519 48.214 A 34.608 34.608 0 0 1 375.06 40.86 Q 378.6 33.48 384.96 29.22 A 25.258 25.258 0 0 1 397.271 25.054 A 31.446 31.446 0 0 1 399.72 24.96 A 34.264 34.264 0 0 1 406.284 25.555 Q 410.297 26.338 413.501 28.153 A 20.656 20.656 0 0 1 414.66 28.86 Q 420.6 32.76 423.6 39.36 A 33.822 33.822 0 0 1 426.511 51.196 A 40.121 40.121 0 0 1 426.6 53.88 A 90.244 90.244 0 0 1 426.251 61.916 A 83.149 83.149 0 0 1 426.24 62.04 Z M 1080.96 62.04 L 1037.28 62.04 Q 1038.36 70.8 1043.4 75.72 A 16.973 16.973 0 0 0 1052.55 80.293 A 24.025 24.025 0 0 0 1056.72 80.64 Q 1062.12 80.64 1066.44 79.5 Q 1070.76 78.36 1074.72 76.56 L 1077.24 85.8 A 48.924 48.924 0 0 1 1072.038 87.751 A 62.236 62.236 0 0 1 1067.52 88.98 A 46.697 46.697 0 0 1 1061.41 89.963 A 62.43 62.43 0 0 1 1055.4 90.24 A 33.981 33.981 0 0 1 1046.105 89.033 A 25.33 25.33 0 0 1 1034.1 81.66 A 28.226 28.226 0 0 1 1027.854 70.212 Q 1026.24 64.614 1026.24 57.6 A 42.43 42.43 0 0 1 1027.239 48.214 A 34.608 34.608 0 0 1 1029.78 40.86 Q 1033.32 33.48 1039.68 29.22 A 25.258 25.258 0 0 1 1051.991 25.054 A 31.446 31.446 0 0 1 1054.44 24.96 A 34.264 34.264 0 0 1 1061.004 25.555 Q 1065.017 26.338 1068.221 28.153 A 20.656 20.656 0 0 1 1069.38 28.86 Q 1075.32 32.76 1078.32 39.36 A 33.822 33.822 0 0 1 1081.231 51.196 A 40.121 40.121 0 0 1 1081.32 53.88 A 90.244 90.244 0 0 1 1080.971 61.916 A 83.149 83.149 0 0 1 1080.96 62.04 Z M 0 88.56 L 0 5.04 Q 5.64 4.44 11.04 4.14 A 181.571 181.571 0 0 1 16.064 3.935 Q 19.485 3.84 23.4 3.84 A 58.33 58.33 0 0 1 32.213 4.472 Q 37.608 5.297 42.06 7.2 Q 49.92 10.56 55.02 16.44 Q 60.12 22.32 62.58 30.06 A 53.107 53.107 0 0 1 64.946 43.255 A 61.807 61.807 0 0 1 65.04 46.68 A 54.37 54.37 0 0 1 63.263 60.717 A 50.162 50.162 0 0 1 62.52 63.24 Q 60 71.04 54.78 76.98 A 34.762 34.762 0 0 1 44.873 84.719 A 42.308 42.308 0 0 1 41.46 86.34 Q 33.36 89.76 22.08 89.76 Q 15.24 89.76 10.14 89.4 Q 5.04 89.04 0 88.56 Z M 1278.36 28.68 L 1275.12 37.8 A 36.506 36.506 0 0 0 1271.635 36.269 A 28.104 28.104 0 0 0 1268.7 35.34 A 24.651 24.651 0 0 0 1265.049 34.709 A 31.626 31.626 0 0 0 1261.92 34.56 A 19.067 19.067 0 0 0 1253.217 36.531 A 19.358 19.358 0 0 0 1247.82 40.62 A 20.083 20.083 0 0 0 1243.061 49.445 Q 1242.238 52.574 1242.135 56.287 A 38.729 38.729 0 0 0 1242.12 57.36 A 30.231 30.231 0 0 0 1242.966 64.632 A 25.74 25.74 0 0 0 1244.52 69.12 A 22.276 22.276 0 0 0 1248.012 74.613 A 19.53 19.53 0 0 0 1251.18 77.52 A 16.156 16.156 0 0 0 1259.783 80.591 A 20.287 20.287 0 0 0 1261.2 80.64 A 34.105 34.105 0 0 0 1264.687 80.472 Q 1267.076 80.226 1269 79.62 Q 1272.227 78.604 1275.931 76.695 A 60.821 60.821 0 0 0 1275.96 76.68 L 1279.32 85.8 A 34.245 34.245 0 0 1 1273.78 88.208 A 41.149 41.149 0 0 1 1270.98 89.04 Q 1266.36 90.24 1260.48 90.24 A 32.164 32.164 0 0 1 1252.034 89.172 A 26.489 26.489 0 0 1 1244.94 86.1 Q 1238.28 81.96 1234.68 74.58 A 35.234 35.234 0 0 1 1231.515 64.007 A 45.625 45.625 0 0 1 1231.08 57.6 A 38.444 38.444 0 0 1 1232.656 46.459 A 34.558 34.558 0 0 1 1234.74 41.16 Q 1238.4 33.72 1245.24 29.34 A 27.681 27.681 0 0 1 1256.842 25.235 A 35.53 35.53 0 0 1 1261.32 24.96 A 49.571 49.571 0 0 1 1265.699 25.144 Q 1267.943 25.343 1269.904 25.759 A 28.765 28.765 0 0 1 1270.62 25.92 Q 1274.64 26.88 1278.36 28.68 Z M 741.24 31.44 L 741.24 26.4 L 751.08 26.4 L 751.08 73.68 A 14.58 14.58 0 0 0 751.202 75.643 Q 751.6 78.563 753.3 79.62 Q 755.52 81 758.16 81 L 755.88 89.4 Q 744.36 89.4 741.96 80.04 A 25.569 25.569 0 0 1 738.229 84.151 A 34.198 34.198 0 0 1 734.46 87.06 Q 730.006 90.048 723.274 90.228 A 32.645 32.645 0 0 1 722.4 90.24 Q 714.6 90.24 708.24 86.28 A 27.536 27.536 0 0 1 699.344 77.248 A 33.507 33.507 0 0 1 698.1 75.06 A 32.673 32.673 0 0 1 694.944 65.529 A 43.973 43.973 0 0 1 694.32 57.96 A 39.77 39.77 0 0 1 695.516 48.038 A 33.562 33.562 0 0 1 698.1 41.16 Q 701.88 33.72 708.54 29.34 A 26.72 26.72 0 0 1 708.644 29.272 Q 714.44 25.499 721.727 25.027 A 32.711 32.711 0 0 1 723.84 24.96 A 27.101 27.101 0 0 1 729.592 25.549 A 22.444 22.444 0 0 1 733.62 26.82 A 31.202 31.202 0 0 1 738.764 29.572 A 26.523 26.523 0 0 1 741.24 31.44 Z M 607.215 88.628 A 27.241 27.241 0 0 0 616.8 90.24 A 32.707 32.707 0 0 0 618.788 90.18 Q 631.265 89.421 638.22 78.96 Q 643.376 71.205 644.988 58.969 A 92.527 92.527 0 0 0 645.72 46.92 A 98.269 98.269 0 0 0 645.208 36.598 Q 643.785 23.146 638.4 14.76 A 30.458 30.458 0 0 0 637.947 14.075 Q 630.652 3.36 617.04 3.36 A 32.707 32.707 0 0 0 615.052 3.42 Q 602.575 4.179 595.62 14.64 Q 590.464 22.395 588.852 34.631 A 92.527 92.527 0 0 0 588.12 46.68 A 97.584 97.584 0 0 0 588.62 56.846 Q 590.034 70.316 595.44 78.78 Q 600.015 85.943 607.215 88.628 Z M 440.4 69.24 L 440.4 0 L 451.2 0 L 451.2 68.16 Q 451.2 72.049 452.172 74.727 A 9.568 9.568 0 0 0 453.9 77.76 A 8.836 8.836 0 0 0 459.4 80.731 A 12.869 12.869 0 0 0 461.4 80.88 Q 463.68 80.88 465.9 80.34 A 26.63 26.63 0 0 0 467.656 79.852 Q 468.498 79.585 469.215 79.284 A 14.331 14.331 0 0 0 469.68 79.08 L 472.32 87.84 Q 470.16 88.8 466.98 89.52 A 28.58 28.58 0 0 1 463.194 90.102 A 36.616 36.616 0 0 1 459.96 90.24 A 25.035 25.035 0 0 1 454.092 89.576 A 21.053 21.053 0 0 1 450 88.14 A 15.22 15.22 0 0 1 443.61 82.421 A 19.027 19.027 0 0 1 442.98 81.36 A 18.906 18.906 0 0 1 441.216 76.737 Q 440.4 73.425 440.4 69.24 Z M 771.96 69.24 L 771.96 0 L 782.76 0 L 782.76 68.16 Q 782.76 72.049 783.732 74.727 A 9.568 9.568 0 0 0 785.46 77.76 A 8.836 8.836 0 0 0 790.96 80.731 A 12.869 12.869 0 0 0 792.96 80.88 Q 795.24 80.88 797.46 80.34 A 26.63 26.63 0 0 0 799.216 79.852 Q 800.058 79.585 800.775 79.284 A 14.331 14.331 0 0 0 801.24 79.08 L 803.88 87.84 Q 801.72 88.8 798.54 89.52 A 28.58 28.58 0 0 1 794.754 90.102 A 36.616 36.616 0 0 1 791.52 90.24 A 25.035 25.035 0 0 1 785.652 89.576 A 21.053 21.053 0 0 1 781.56 88.14 A 15.22 15.22 0 0 1 775.17 82.421 A 19.027 19.027 0 0 1 774.54 81.36 A 18.906 18.906 0 0 1 772.776 76.737 Q 771.96 73.425 771.96 69.24 Z M 11.4 14.28 L 11.4 79.2 Q 13.92 79.56 16.68 79.68 Q 19.44 79.8 22.44 79.8 Q 31.051 79.8 37.144 77.13 A 24.035 24.035 0 0 0 40.08 75.6 Q 46.92 71.4 50.16 63.9 A 38.75 38.75 0 0 0 52.865 54.211 A 51.003 51.003 0 0 0 53.4 46.68 Q 53.4 38.04 50.16 30.48 Q 46.92 22.92 40.2 18.3 A 25.074 25.074 0 0 0 31.737 14.629 Q 28.328 13.813 24.355 13.699 A 45.609 45.609 0 0 0 23.04 13.68 Q 19.56 13.68 16.68 13.86 Q 13.8 14.04 11.4 14.28 Z M 616.92 80.4 A 15.314 15.314 0 0 0 622.225 79.506 A 13.792 13.792 0 0 0 626.22 77.22 Q 629.107 74.866 631.008 70.244 A 33.74 33.74 0 0 0 632.22 66.72 Q 634.32 59.4 634.32 47.04 Q 634.32 30.48 629.7 21.84 Q 625.08 13.2 616.92 13.2 A 15.314 15.314 0 0 0 611.615 14.094 A 13.792 13.792 0 0 0 607.62 16.38 Q 603.72 19.56 601.62 26.82 A 43.934 43.934 0 0 0 600.446 32.287 Q 599.52 38.273 599.52 46.56 Q 599.52 63.12 604.14 71.76 Q 608.76 80.4 616.92 80.4 Z M 1216.08 88.8 L 1205.28 88.8 L 1205.28 26.4 L 1216.08 26.4 L 1216.08 88.8 Z M 740.28 72.84 L 740.28 39.36 Q 737.04 37.08 733.14 35.7 Q 729.24 34.32 724.92 34.32 A 19.109 19.109 0 0 0 718.955 35.225 A 16.828 16.828 0 0 0 714.78 37.26 A 19.561 19.561 0 0 0 708.757 43.769 A 23.955 23.955 0 0 0 707.88 45.42 A 24.796 24.796 0 0 0 705.776 52.232 A 33.214 33.214 0 0 0 705.36 57.6 Q 705.36 64.32 707.88 69.54 A 21.122 21.122 0 0 0 711.607 74.995 A 18.836 18.836 0 0 0 714.84 77.7 Q 719.28 80.64 724.8 80.64 Q 729.36 80.64 733.44 78.42 A 23.34 23.34 0 0 0 739.104 74.158 A 21.685 21.685 0 0 0 740.28 72.84 Z M 243.36 73.08 L 243.36 42.12 A 19.017 19.017 0 0 0 240.827 39.512 Q 239.168 38.087 237 36.78 Q 232.92 34.32 228 34.32 A 17.935 17.935 0 0 0 222.053 35.28 A 16.062 16.062 0 0 0 217.92 37.44 A 20.028 20.028 0 0 0 211.716 44.82 A 23.909 23.909 0 0 0 211.26 45.78 A 26.628 26.628 0 0 0 209.172 53.417 A 33.736 33.736 0 0 0 208.92 57.6 A 29.708 29.708 0 0 0 209.631 64.223 A 24.393 24.393 0 0 0 211.44 69.42 A 21.846 21.846 0 0 0 215.088 74.836 A 19.347 19.347 0 0 0 218.34 77.64 Q 222.72 80.64 228.12 80.64 Q 232.56 80.64 236.58 78.54 Q 240.6 76.44 243.36 73.08 Z M 999.36 73.08 L 999.36 42.12 A 19.017 19.017 0 0 0 996.827 39.512 Q 995.168 38.087 993 36.78 Q 988.92 34.32 984 34.32 A 17.935 17.935 0 0 0 978.053 35.28 A 16.062 16.062 0 0 0 973.92 37.44 A 20.028 20.028 0 0 0 967.716 44.82 A 23.909 23.909 0 0 0 967.26 45.78 A 26.628 26.628 0 0 0 965.172 53.417 A 33.736 33.736 0 0 0 964.92 57.6 A 29.708 29.708 0 0 0 965.631 64.223 A 24.393 24.393 0 0 0 967.44 69.42 A 21.846 21.846 0 0 0 971.088 74.836 A 19.347 19.347 0 0 0 974.34 77.64 Q 978.72 80.64 984.12 80.64 Q 988.56 80.64 992.58 78.54 Q 996.6 76.44 999.36 73.08 Z M 1173 73.08 L 1173 42.12 A 19.017 19.017 0 0 0 1170.467 39.512 Q 1168.808 38.087 1166.64 36.78 Q 1162.56 34.32 1157.64 34.32 A 17.935 17.935 0 0 0 1151.693 35.28 A 16.062 16.062 0 0 0 1147.56 37.44 A 20.028 20.028 0 0 0 1141.356 44.82 A 23.909 23.909 0 0 0 1140.9 45.78 A 26.628 26.628 0 0 0 1138.812 53.417 A 33.736 33.736 0 0 0 1138.56 57.6 A 29.708 29.708 0 0 0 1139.271 64.223 A 24.393 24.393 0 0 0 1141.08 69.42 A 21.846 21.846 0 0 0 1144.728 74.836 A 19.347 19.347 0 0 0 1147.98 77.64 Q 1152.36 80.64 1157.76 80.64 Q 1162.2 80.64 1166.22 78.54 Q 1170.24 76.44 1173 73.08 Z M 1037.16 53.28 L 1071.36 53.28 A 29.226 29.226 0 0 0 1070.875 47.777 Q 1069.873 42.555 1066.8 39.24 A 14.986 14.986 0 0 0 1058.447 34.709 A 22.074 22.074 0 0 0 1054.2 34.32 A 16.296 16.296 0 0 0 1048.066 35.442 A 15.029 15.029 0 0 0 1042.68 39.18 A 18.198 18.198 0 0 0 1039.151 44.807 Q 1038.139 47.279 1037.583 50.305 A 38.425 38.425 0 0 0 1037.16 53.28 Z M 87.36 53.28 L 121.56 53.28 A 29.226 29.226 0 0 0 121.075 47.777 Q 120.073 42.555 117 39.24 A 14.986 14.986 0 0 0 108.647 34.709 A 22.074 22.074 0 0 0 104.4 34.32 A 16.296 16.296 0 0 0 98.266 35.442 A 15.029 15.029 0 0 0 92.88 39.18 A 18.198 18.198 0 0 0 89.351 44.807 Q 88.339 47.279 87.783 50.305 A 38.425 38.425 0 0 0 87.36 53.28 Z M 281.16 53.28 L 315.36 53.28 A 29.226 29.226 0 0 0 314.875 47.777 Q 313.873 42.555 310.8 39.24 A 14.986 14.986 0 0 0 302.447 34.709 A 22.074 22.074 0 0 0 298.2 34.32 A 16.296 16.296 0 0 0 292.066 35.442 A 15.029 15.029 0 0 0 286.68 39.18 A 18.198 18.198 0 0 0 283.151 44.807 Q 282.139 47.279 281.583 50.305 A 38.425 38.425 0 0 0 281.16 53.28 Z M 382.44 53.28 L 416.64 53.28 A 29.226 29.226 0 0 0 416.155 47.777 Q 415.153 42.555 412.08 39.24 A 14.986 14.986 0 0 0 403.727 34.709 A 22.074 22.074 0 0 0 399.48 34.32 A 16.296 16.296 0 0 0 393.346 35.442 A 15.029 15.029 0 0 0 387.96 39.18 A 18.198 18.198 0 0 0 384.431 44.807 Q 383.419 47.279 382.863 50.305 A 38.425 38.425 0 0 0 382.44 53.28 Z M 1205.445 13.546 A 7.167 7.167 0 0 0 1210.68 15.72 A 9.81 9.81 0 0 0 1212.475 15.563 A 6.777 6.777 0 0 0 1216.2 13.62 A 6.932 6.932 0 0 0 1217.91 10.66 A 9.013 9.013 0 0 0 1218.24 8.16 A 8.711 8.711 0 0 0 1218.239 8.063 A 7.273 7.273 0 0 0 1216.02 2.82 A 8.875 8.875 0 0 0 1215.95 2.751 A 7.27 7.27 0 0 0 1210.68 0.6 A 9.916 9.916 0 0 0 1208.693 0.789 A 6.793 6.793 0 0 0 1205.16 2.64 A 6.705 6.705 0 0 0 1203.395 5.799 A 9.585 9.585 0 0 0 1203.12 8.16 A 7.19 7.19 0 0 0 1203.71 11.062 A 7.972 7.972 0 0 0 1205.34 13.44 A 8.961 8.961 0 0 0 1205.445 13.546 Z" vector-effect="non-scaling-stroke"/></g></svg>